HIERARCHY
ROOT Hips
{
	OFFSET -32.860001 56.121803 44.745396
	CHANNELS 6 Xposition Yposition Zposition Zrotation Xrotation Yrotation
	JOINT Chest
	{
		OFFSET -0.637402 0.831600 5.390099
		CHANNELS 6 Xposition Yposition Zposition Zrotation Xrotation Yrotation
		JOINT Chest2
		{
			OFFSET 0.000000 0.000000 4.429901
			CHANNELS 6 Xposition Yposition Zposition Zrotation Xrotation Yrotation
			JOINT Neck
			{
				OFFSET 0.000000 0.000000 10.301395
				CHANNELS 6 Xposition Yposition Zposition Zrotation Xrotation Yrotation
				JOINT Head
				{
					OFFSET 0.000000 0.000000 2.173897
					CHANNELS 6 Xposition Yposition Zposition Zrotation Xrotation Yrotation
					End Site
					{
						OFFSET 0.000000 0.000000 8.298004
					}
				}
			}
			JOINT LeftCollar
			{
				OFFSET 2.142401 -0.572701 5.717800
				CHANNELS 6 Xposition Yposition Zposition Zrotation Xrotation Yrotation
				JOINT LeftShoulder
				{
					OFFSET 5.674000 0.000000 0.000000
					CHANNELS 6 Xposition Yposition Zposition Zrotation Xrotation Yrotation
					JOINT LeftElbow
					{
						OFFSET 0.000000 0.000000 -12.238701
						CHANNELS 6 Xposition Yposition Zposition Zrotation Xrotation Yrotation
						JOINT LeftWrist
						{
							OFFSET 0.000000 0.000000 -10.253700
							CHANNELS 6 Xposition Yposition Zposition Zrotation Xrotation Yrotation
							End Site
							{
								OFFSET 0.000000 0.000000 -2.173901
							}
						}
					}
				}
			}
			JOINT RightCollar
			{
				OFFSET -2.882599 -1.580101 6.695801
				CHANNELS 6 Xposition Yposition Zposition Zrotation Xrotation Yrotation
				JOINT RightShoulder
				{
					OFFSET -4.235600 0.000000 0.000000
					CHANNELS 6 Xposition Yposition Zposition Zrotation Xrotation Yrotation
					JOINT RightElbow
					{
						OFFSET 0.000000 0.000000 -10.709900
						CHANNELS 6 Xposition Yposition Zposition Zrotation Xrotation Yrotation
						JOINT RightWrist
						{
							OFFSET 0.000000 0.000000 -11.716801
							CHANNELS 6 Xposition Yposition Zposition Zrotation Xrotation Yrotation
							End Site
							{
								OFFSET 0.000000 0.000000 -2.173901
							}
						}
					}
				}
			}
		}
	}
	JOINT LeftHip
	{
		OFFSET 2.279499 0.210400 -2.475502
		CHANNELS 6 Xposition Yposition Zposition Zrotation Xrotation Yrotation
		JOINT LeftKnee
		{
			OFFSET 0.000000 -0.000004 -20.742800
			CHANNELS 6 Xposition Yposition Zposition Zrotation Xrotation Yrotation
			JOINT LeftAnkle
			{
				OFFSET 0.000000 0.000000 -16.666000
				CHANNELS 6 Xposition Yposition Zposition Zrotation Xrotation Yrotation
				End Site
				{
					OFFSET 0.000000 -8.310898 0.000000
				}
			}
		}
	}
	JOINT RightHip
	{
		OFFSET -1.961899 0.232300 -2.727402
		CHANNELS 6 Xposition Yposition Zposition Zrotation Xrotation Yrotation
		JOINT RightKnee
		{
			OFFSET 0.000000 -0.000004 -20.526800
			CHANNELS 6 Xposition Yposition Zposition Zrotation Xrotation Yrotation
			JOINT RightAnkle
			{
				OFFSET 0.000000 0.000000 -16.867300
				CHANNELS 6 Xposition Yposition Zposition Zrotation Xrotation Yrotation
				End Site
				{
					OFFSET 0.000000 -7.186401 0.000000
				}
			}
		}
	}
}
MOTION
Frames: 10
Frame Time: 0.041667
-45.204796 22.183910 44.246998 810.282717 0.269889 2.730507 -0.637403 0.831600 5.390101 -17.713237 1.551957 4.784394 0.000006 0.000002 4.429896 4.355408 -2.949851 -0.430576 -0.000003 0.000004 10.301399 399.325261 7.427180 -16.132605 -0.000004 0.000001 2.173892 -357.873499 4.654817 2.965938 2.142397 -0.572699 5.717805 -1.366936 -5.621158 -8.408393 5.673999 0.000000 0.000005 339.858356 -348.152856 -84.541548 0.000002 0.000002 -12.238711 -890.351440 -55.746303 -167.242947 0.000000 0.000000 -10.253703 495.358978 29.770343 -88.019774 -2.882607 -1.580098 6.695796 -8.593090 -3.678471 24.733964 -4.235608 -0.000006 0.000006 -706.183968 -72.507301 -248.743086 0.000005 -0.000011 -10.709906 103.321214 -157.959285 142.129693 0.000000 0.000006 -11.716808 -735.549082 6.991800 397.195636 2.279498 0.210402 -2.475497 378.410348 -22.715686 7.178187 0.000002 -0.000008 -20.742800 -455.078019 22.720857 51.464779 -0.000001 0.000001 -16.666002 420.011145 3.503279 37.759478 -1.961895 0.232301 -2.727402 -1158.938084 -45.939316 -42.254945 0.000003 -0.000005 -20.526806 912.976251 156.293047 -180.623847 -0.000005 0.000001 -16.867294 42.768244 74.356848 -26.765695
-45.133793 22.273808 44.241787 809.799031 -0.264305 3.105995 -0.637405 0.831604 5.390099 -17.154990 2.143855 4.578597 0.000004 -0.000007 4.429903 4.193658 -2.948655 -0.429782 -0.000004 0.000000 10.301386 399.401814 7.467574 -16.100988 -0.000001 -0.000001 2.173910 -357.878745 4.686888 2.955950 2.142397 -0.572704 5.717796 -1.230555 -5.641360 -8.287752 5.673996 0.000000 -0.000001 339.849968 -348.183592 -84.407963 -0.000003 0.000002 -12.238708 -890.075173 -55.868314 -166.925233 0.000006 -0.000006 -10.253708 495.424766 29.981044 -87.892698 -2.882600 -1.580100 6.695798 -8.555648 -3.901656 24.777044 -4.235602 0.000002 -0.000005 -706.275711 -72.183434 -248.877723 0.000005 -0.000002 -10.709892 103.260835 -157.994584 142.177955 0.000000 0.000010 -11.716806 -735.567934 6.986650 397.146322 2.279501 0.210405 -2.475500 378.524658 -22.324294 6.948421 -0.000005 -0.000004 -20.742798 -455.665033 22.711303 51.878517 -0.000003 0.000006 -16.665998 420.668837 3.308318 37.928430 -1.961891 0.232305 -2.727400 -1160.368489 -45.659941 -41.804371 0.000000 0.000000 -20.526796 915.952465 155.485759 -181.385003 -0.000002 -0.000003 -16.867302 33.437949 74.735752 -15.896734
-45.056995 22.368603 44.239491 809.194641 -0.252716 3.425097 -0.637406 0.831594 5.390101 -16.583810 2.148552 4.226566 -0.000002 -0.000002 4.429899 4.069334 -2.943140 -0.432499 0.000004 -0.000002 10.301395 399.482110 7.542905 -16.031475 -0.000006 0.000005 2.173910 -357.875849 4.710691 2.989554 2.142402 -0.572697 5.717809 -1.132274 -5.655242 -8.178086 5.673996 -0.000005 0.000001 339.945236 -348.250937 -84.226785 0.000001 0.000003 -12.238706 -889.851361 -55.963015 -166.589748 0.000000 -0.000003 -10.253702 495.445585 30.176104 -87.726513 -2.882601 -1.580095 6.695798 -8.539189 -4.096822 24.836530 -4.235606 -0.000003 -0.000000 -705.981248 -72.014284 -248.750982 0.000010 -0.000003 -10.709892 103.349580 -157.995171 142.249468 -0.000001 0.000009 -11.716793 -735.561978 6.971287 397.123591 2.279496 0.210392 -2.475497 378.756338 -22.415001 6.962398 0.000004 -0.000005 -20.742802 -456.605140 22.338011 52.382742 -0.000004 -0.000001 -16.666000 421.706616 3.015656 38.374168 -1.961905 0.232292 -2.727400 -1162.180839 -45.534617 -42.035272 0.000007 0.000001 -20.526794 918.971244 154.661670 -182.185693 -0.000001 -0.000000 -16.867300 23.328076 74.371724 -4.083187
-44.975498 22.467308 44.241089 808.558559 -0.191995 3.772567 -0.637400 0.831598 5.390101 -16.020603 2.066474 3.799259 0.000001 -0.000002 4.429898 3.945617 -2.921103 -0.436712 0.000009 0.000002 10.301396 399.500223 7.684378 -15.926526 -0.000012 -0.000003 2.173907 -357.830114 4.715266 3.023515 2.142400 -0.572703 5.717802 -1.075638 -5.638778 -8.048408 5.673999 -0.000002 -0.000008 340.133613 -348.223616 -84.043476 0.000001 0.000004 -12.238704 -889.538921 -56.042337 -166.266503 -0.000004 0.000000 -10.253702 495.469900 30.400933 -87.552411 -2.882601 -1.580095 6.695793 -8.391919 -4.121852 24.929579 -4.235601 0.000005 0.000002 -705.630395 -72.055825 -248.384146 0.000001 0.000005 -10.709892 103.529289 -158.027546 142.290052 0.000005 0.000010 -11.716815 -735.521051 6.954886 397.081408 2.279505 0.210397 -2.475497 378.946081 -22.543856 6.960097 -0.000000 -0.000007 -20.742792 -457.509594 21.905098 52.841082 -0.000004 -0.000001 -16.665997 422.801004 2.778513 38.708291 -1.961891 0.232299 -2.727396 -1163.858115 -45.405824 -42.172368 0.000004 0.000000 -20.526796 918.182002 154.902625 -180.822811 -0.000004 -0.000001 -16.867300 32.785113 74.212266 -13.903077
-44.887894 22.568207 44.247295 807.784835 0.402270 4.071499 -0.637409 0.831595 5.390100 -15.445896 1.411047 3.239723 -0.000002 -0.000004 4.429902 3.865210 -2.886817 -0.442400 -0.000002 0.000013 10.301399 399.513010 7.859716 -15.771462 -0.000013 0.000008 2.173897 -357.784761 4.714195 3.062738 2.142394 -0.572692 5.717804 -1.005091 -5.635635 -7.866996 5.673998 0.000009 -0.000002 340.362506 -348.122612 -83.898424 -0.000004 0.000006 -12.238709 -889.230524 -56.130177 -165.958734 0.000006 0.000001 -10.253706 495.456458 30.640563 -87.293977 -2.882601 -1.580088 6.695793 -8.254056 -4.072307 25.029385 -4.235607 0.000001 -0.000003 -705.135397 -72.166973 -247.941987 -0.000001 -0.000003 -10.709900 103.769049 -157.946799 142.342194 -0.000001 -0.000003 -11.716793 -735.544438 6.943280 397.051983 2.279494 0.210402 -2.475501 379.260488 -23.144361 7.176528 -0.000004 -0.000009 -20.742794 -457.922028 21.824772 53.105458 -0.000002 0.000004 -16.666000 423.447878 2.679213 38.725499 -1.961899 0.232300 -2.727400 -1165.939519 -45.327055 -42.984197 0.000004 -0.000007 -20.526804 917.183155 155.235897 -179.405861 -0.000004 -0.000002 -16.867304 42.195478 73.979896 -23.419891
-44.794697 22.669800 44.258194 807.137224 0.434813 4.401227 -0.637400 0.831604 5.390101 -14.981337 1.290918 2.797055 0.000004 0.000000 4.429899 3.739265 -2.855615 -0.296987 0.000001 0.000000 10.301398 399.599808 7.944312 -15.761966 -0.000006 -0.000004 2.173896 -357.759489 4.713406 3.124110 2.142400 -0.572695 5.717797 -0.979389 -5.561952 -7.861608 5.673997 -0.000008 -0.000000 340.704971 -348.080264 -83.764702 -0.000001 -0.000001 -12.238708 -888.957426 -56.223761 -165.634983 -0.000002 -0.000005 -10.253705 495.416898 30.870433 -87.025223 -2.882603 -1.580097 6.695787 -8.052514 -3.951999 24.996486 -4.235609 -0.000004 -0.000001 -704.766840 -72.291986 -247.606406 0.000007 0.000003 -10.709896 103.945541 -157.881025 142.354215 -0.000006 0.000001 -11.716801 -735.527280 6.918063 397.059633 2.279506 0.210402 -2.475498 379.361930 -23.208745 7.157150 -0.000002 -0.000005 -20.742794 -458.063085 22.019041 53.292640 -0.000000 0.000001 -16.666000 423.787666 2.595040 38.657757 -1.961889 0.232304 -2.727402 -1167.492868 -45.123327 -42.914936 0.000003 -0.000007 -20.526800 915.801763 155.703670 -177.848591 0.000003 -0.000001 -16.867300 51.738406 73.412670 -32.711070
-44.695404 22.771610 44.270390 806.459778 0.463605 4.694007 -0.637400 0.831598 5.390098 -14.489819 1.156894 2.380664 0.000000 0.000006 4.429900 3.658099 -2.810794 -0.291572 0.000000 -0.000006 10.301399 399.623986 8.097077 -15.669057 0.000003 -0.000006 2.173891 -357.774789 4.706491 3.215931 2.142400 -0.572700 5.717797 -1.032393 -5.465370 -7.756043 5.673996 -0.000001 0.000001 341.131148 -348.051496 -83.652598 0.000001 0.000003 -12.238706 -888.748258 -56.229570 -165.406336 0.000006 0.000008 -10.253709 495.401106 31.052072 -86.806452 -2.882596 -1.580101 6.695789 -7.943257 -3.927410 25.096208 -4.235607 -0.000006 0.000006 -704.172286 -72.441615 -247.148155 0.000001 -0.000007 -10.709896 104.154108 -157.855343 142.366195 -0.000005 0.000000 -11.716808 -735.451930 6.887144 397.092472 2.279501 0.210402 -2.475495 379.438728 -23.249255 7.134473 -0.000007 -0.000002 -20.742798 -457.642017 22.693874 53.310928 -0.000003 0.000002 -16.666000 423.572597 2.574229 38.338217 -1.961893 0.232302 -2.727398 -1169.073975 -44.877157 -42.834643 0.000006 0.000001 -20.526794 914.378079 156.277091 -176.275284 0.000002 -0.000004 -16.867302 60.641917 72.561375 -41.073114
-44.590691 22.870804 44.284592 805.762116 0.492582 4.987574 -0.637408 0.831600 5.390102 -13.982685 1.005170 1.944147 -0.000003 0.000002 4.429899 3.583750 -2.762228 -0.285842 0.000001 0.000002 10.301396 399.657782 8.246842 -15.599981 0.000008 -0.000006 2.173904 -357.801536 4.687871 3.281321 2.142395 -0.572695 5.717803 -1.082618 -5.355036 -7.628600 5.674004 0.000008 0.000002 341.392416 -347.873255 -83.498345 -0.000001 -0.000001 -12.238706 -888.307083 -56.355058 -165.104346 -0.000004 0.000000 -10.253702 495.432197 31.189086 -86.696595 -2.882599 -1.580097 6.695791 -7.786237 -3.838371 25.252674 -4.235605 0.000003 0.000004 -703.814330 -72.628147 -246.837600 0.000008 -0.000004 -10.709898 104.377674 -157.810373 142.362480 -0.000005 0.000010 -11.716805 -735.449580 6.888707 397.157796 2.279491 0.210400 -2.475498 379.505309 -23.303074 7.059897 -0.000009 -0.000008 -20.742796 -456.883129 23.645709 53.229522 -0.000012 -0.000000 -16.666004 423.015745 2.573842 37.946680 -1.961905 0.232303 -2.727400 -1170.558694 -44.598892 -42.649870 0.000002 -0.000002 -20.526806 912.628293 157.064995 -174.617065 0.000007 -0.000009 -16.867306 69.900743 71.617259 -49.662309
-44.480591 22.966705 44.300491 805.068988 0.519478 5.261075 -0.637395 0.831600 5.390098 -13.474126 0.846975 1.511168 0.000002 0.000008 4.429907 3.514506 -2.710918 -0.280014 0.000002 0.000004 10.301406 399.756110 8.354614 -15.556608 -0.000001 -0.000004 2.173896 -357.892951 4.651447 3.370199 2.142399 -0.572696 5.717804 -1.139940 -5.253651 -7.517357 5.673998 0.000001 0.000004 341.598688 -347.685452 -83.360382 -0.000005 0.000006 -12.238716 -887.922789 -56.502180 -164.852735 0.000004 0.000002 -10.253703 495.462196 31.253744 -86.641803 -2.882602 -1.580091 6.695803 -7.709798 -3.875571 25.446795 -4.235606 0.000001 0.000001 -703.330424 -72.799482 -246.551934 0.000009 0.000000 -10.709906 104.620712 -157.818488 142.375444 -0.000006 0.000006 -11.716803 -735.392862 6.890846 397.233939 2.279501 0.210401 -2.475506 379.545252 -23.325610 6.981096 -0.000003 -0.000007 -20.742794 -456.176778 24.526830 53.143718 -0.000002 0.000001 -16.665998 422.537905 2.500775 37.753854 -1.961895 0.232301 -2.727404 -1171.987898 -44.306904 -42.369979 0.000006 -0.000002 -20.526804 913.668012 156.816717 -174.269258 -0.000005 -0.000004 -16.867296 70.068875 71.666607 -49.151189
-44.368797 23.059906 44.316093 804.384767 0.542964 5.499095 -0.637403 0.831594 5.390105 -12.954858 0.685179 1.128915 -0.000002 -0.000006 4.429900 3.439922 -2.661510 -0.274394 0.000004 -0.000006 10.301398 399.834520 8.415581 -15.547802 0.000003 -0.000005 2.173899 -357.967018 4.620378 3.454304 2.142397 -0.572702 5.717797 -0.726841 -5.361838 -7.523365 5.674000 0.000004 -0.000005 341.171173 -347.396535 -83.035730 -0.000001 0.000001 -12.238703 -887.524944 -56.696185 -164.630235 0.000000 0.000006 -10.253707 495.594865 31.240773 -86.813439 -2.882601 -1.580101 6.695790 -7.687330 -3.998156 25.620828 -4.235599 -0.000004 -0.000008 -702.673196 -72.980360 -246.166739 0.000007 0.000007 -10.709902 104.970302 -157.847571 142.419034 -0.000001 0.000008 -11.716797 -735.381770 6.870616 397.322732 2.279498 0.210401 -2.475490 379.632624 -23.340860 6.929233 -0.000010 -0.000003 -20.742794 -455.768797 25.165255 53.167439 -0.000004 0.000002 -16.665997 422.323765 2.329983 37.827493 -1.961901 0.232298 -2.727390 -1173.452837 -43.994293 -42.043441 -0.000001 -0.000007 -20.526798 914.818489 156.542840 -173.970423 -0.000001 -0.000002 -16.867298 70.181280 71.741780 -48.614831
